<?xml version="1.0" standalone="no"?>
<!DOCTYPE svg PUBLIC "-//W3C//DTD SVG 20010904//EN"
 "http://www.w3.org/TR/2001/REC-SVG-20010904/DTD/svg10.dtd">
<svg version="1.0" xmlns="http://www.w3.org/2000/svg"
 width="984.000000pt" height="984.000000pt" viewBox="0 0 984.000000 984.000000"
 preserveAspectRatio="xMidYMid meet">
<metadata>
Created by potrace 1.14, written by Peter Selinger 2001-2017
</metadata>
<g transform="translate(0.000000,984.000000) scale(0.100000,-0.100000)"
fill="#000000" stroke="none">
<path d="M2915 9710 c-22 -4 -53 -10 -70 -13 -53 -10 -70 -15 -109 -31 -21 -9
-42 -13 -47 -10 -5 3 -9 1 -9 -4 0 -5 -27 -20 -60 -33 -33 -13 -60 -26 -60
-29 0 -4 -16 -12 -35 -20 -19 -8 -35 -17 -35 -22 0 -4 -7 -8 -15 -8 -8 0 -15
-4 -15 -8 0 -4 -13 -15 -29 -25 -50 -29 -211 -178 -211 -195 0 -4 -9 -14 -20
-22 -11 -8 -20 -20 -20 -27 0 -7 -3 -13 -7 -13 -10 0 -74 -102 -73 -114 1 -5
-3 -12 -8 -15 -14 -9 -44 -75 -56 -126 -4 -16 -12 -39 -17 -50 -5 -11 -10 -29
-12 -40 -2 -11 -9 -40 -16 -65 -7 -25 -14 -52 -16 -60 -2 -8 -17 -68 -34 -134
-17 -65 -33 -128 -36 -140 -2 -11 -4 -23 -5 -26 -2 -3 -2 -9 -1 -14 1 -4 -4
-14 -10 -22 -6 -8 -9 -14 -6 -14 3 0 -1 -24 -9 -52 -8 -29 -17 -60 -19 -68
-31 -126 -127 -508 -129 -515 -7 -22 -16 -57 -31 -116 -2 -9 -13 -54 -25 -98
-13 -45 -19 -85 -16 -88 4 -4 653 -6 1444 -5 l1437 2 105 -141 c58 -78 113
-151 123 -162 9 -11 17 -23 17 -26 0 -3 13 -21 28 -39 15 -17 35 -42 44 -55
10 -12 35 -45 58 -74 22 -29 40 -57 40 -62 0 -5 3 -11 8 -13 4 -1 18 -17 32
-33 l25 -30 321 0 c280 0 324 2 340 16 11 9 34 29 53 45 19 16 46 40 61 54 15
14 49 44 76 67 27 23 62 53 78 67 16 14 33 26 38 26 5 0 6 5 3 10 -3 6 -2 10
3 10 4 0 23 13 41 29 18 16 51 45 74 64 45 38 100 86 159 142 21 19 40 35 43
35 2 0 21 16 41 35 19 19 41 36 47 36 7 1 711 2 1566 3 l1553 1 18 57 c10 31
15 59 13 62 -3 3 -1 11 3 18 5 7 9 18 10 23 1 6 12 48 24 95 12 47 24 92 25
100 2 8 4 16 5 18 2 1 3 10 4 20 1 9 5 27 9 39 4 12 10 32 13 45 9 39 12 53
14 53 1 0 3 7 5 15 1 8 22 87 45 175 23 88 43 167 45 175 2 8 17 71 35 140 54
213 55 218 55 365 0 123 -5 175 -24 233 -5 18 -11 36 -12 40 -1 4 -6 18 -11
32 -6 14 -11 30 -12 35 -4 20 -67 131 -94 164 -47 60 -124 132 -182 170 -46
32 -165 97 -165 91 0 -1 -31 7 -70 19 -38 11 -83 24 -100 28 -40 10 -6199 13
-6250 3z"/>
<path d="M1339 6259 c-5 -3 -12 -15 -14 -27 -3 -12 -7 -30 -9 -39 -14 -61
-188 -739 -191 -744 -2 -3 -7 -21 -10 -40 -3 -19 -8 -42 -11 -51 -3 -9 -7 -25
-9 -35 -2 -10 -16 -63 -31 -118 -26 -99 -30 -115 -39 -156 -2 -12 -11 -45 -19
-73 -8 -28 -18 -64 -21 -81 -8 -39 -13 -60 -15 -60 -2 0 -6 -15 -14 -55 -3
-14 -20 -79 -37 -145 -17 -66 -33 -127 -35 -135 -1 -8 -7 -30 -13 -48 -5 -18
-10 -35 -10 -37 -1 -3 -1 -6 -2 -7 0 -2 -2 -12 -4 -23 -2 -11 -11 -47 -20 -80
-9 -33 -18 -69 -20 -80 -3 -11 -7 -29 -9 -40 -3 -11 -21 -83 -41 -160 -21 -77
-39 -149 -42 -160 -6 -30 -9 -38 -16 -60 -3 -11 -8 -31 -11 -45 -3 -14 -12
-52 -21 -84 -8 -33 -17 -69 -20 -80 -2 -12 -4 -22 -6 -23 -1 -2 -2 -6 -3 -10
-1 -5 -10 -44 -20 -88 -10 -44 -21 -84 -24 -90 -4 -5 -7 -12 -7 -15 -1 -3 -8
-32 -15 -65 -8 -33 -15 -64 -15 -70 -1 -5 -9 -35 -18 -65 -9 -30 -19 -66 -21
-80 -3 -14 -5 -25 -6 -25 -1 0 -3 -7 -5 -15 -11 -49 -64 -257 -69 -270 -3 -8
-8 -28 -11 -45 -7 -37 -13 -59 -15 -62 -2 -2 -3 -6 -4 -10 -1 -5 -6 -24 -11
-43 -5 -19 -10 -42 -11 -50 -1 -8 -8 -33 -14 -55 -17 -62 -20 -74 -24 -93 -2
-9 -20 -80 -41 -157 -20 -77 -38 -152 -39 -166 -2 -15 -7 -32 -10 -38 -8 -13
-18 -57 -20 -83 0 -10 -5 -18 -10 -18 -5 0 -7 -3 -4 -6 4 -3 2 -20 -3 -37 -10
-32 -15 -51 -23 -85 -2 -9 -19 -73 -36 -142 -18 -69 -34 -132 -35 -140 -2 -8
-4 -15 -5 -15 -1 0 -3 -7 -5 -15 -1 -8 -12 -51 -24 -96 -11 -45 -23 -92 -25
-105 -3 -13 -5 -24 -6 -24 -2 0 -1 4 -36 -140 -23 -92 -27 -133 -28 -250 -1
-148 5 -210 22 -242 6 -11 13 -30 15 -44 11 -71 109 -226 184 -292 20 -18 42
-38 49 -44 7 -7 15 -13 18 -13 3 0 24 -13 48 -29 24 -16 53 -32 65 -35 13 -4
23 -12 23 -18 0 -6 3 -9 6 -6 3 4 22 0 42 -9 20 -8 44 -17 54 -19 10 -2 28 -7
40 -10 13 -3 43 -11 68 -17 32 -8 957 -12 3166 -14 2567 -2 3128 -1 3155 10
19 8 41 13 49 12 8 -1 20 2 25 5 6 4 33 13 60 20 28 7 54 17 60 21 5 5 17 9
26 9 9 0 22 7 29 15 7 9 15 13 17 11 3 -2 27 9 54 25 28 16 54 29 58 29 5 0
11 7 15 15 3 8 11 15 17 15 16 0 132 97 198 165 59 61 172 225 165 237 -3 4
-1 8 4 8 5 0 15 15 22 32 7 18 18 47 26 63 7 17 15 42 18 55 7 35 13 60 25 98
5 17 7 32 4 32 -3 0 0 7 7 15 7 8 10 15 7 15 -3 0 -1 15 4 33 29 95 77 292 73
299 -3 4 0 8 7 8 7 0 10 3 6 6 -3 3 -2 17 3 30 6 14 12 37 15 52 8 37 13 57
15 60 3 3 5 10 15 57 13 56 12 55 15 58 1 1 3 9 5 17 1 8 15 60 29 115 33 125
38 146 39 168 1 9 4 17 7 17 4 0 7 6 7 13 0 6 8 41 18 77 9 36 19 73 20 82 2
10 15 59 29 110 38 142 96 366 100 391 3 12 5 22 6 22 2 0 4 10 13 50 3 11 15
58 27 105 12 47 24 92 25 100 2 8 4 15 5 15 1 0 3 7 5 15 1 8 15 60 29 115 15
55 29 109 31 120 3 17 9 39 30 125 3 8 14 51 26 95 11 44 22 87 24 95 2 8 9
35 16 60 7 25 14 52 15 61 2 8 11 42 19 75 9 32 18 66 20 74 2 8 4 16 5 18 2
1 3 10 4 20 1 9 5 27 9 39 4 12 10 30 12 40 2 10 26 104 53 210 28 105 47 194
44 197 -3 3 -1 6 5 6 6 0 13 15 16 33 3 17 7 41 10 52 8 28 37 143 47 185 5
19 25 98 45 175 21 77 38 145 39 150 1 6 5 19 9 30 3 11 8 31 11 45 3 14 19
79 36 145 17 66 33 127 35 135 2 8 18 69 35 135 26 100 70 269 132 510 5 22
11 45 12 50 1 6 5 16 9 23 5 6 6 12 3 12 -3 0 2 23 10 52 9 28 17 60 19 70 2
10 11 46 20 81 31 117 34 107 -39 106 -35 -1 -68 1 -74 5 -6 3 -13 2 -17 -3
-4 -7 -15 -7 -30 -1 -14 5 -25 6 -25 2 0 -8 -64 -6 -87 2 -7 3 -15 1 -18 -4
-3 -6 -15 -6 -30 0 -14 5 -25 6 -25 2 0 -8 -64 -6 -87 2 -7 3 -15 1 -18 -4 -3
-6 -15 -6 -30 0 -14 5 -25 6 -25 2 0 -4 -55 -6 -122 -4 -68 1 -127 3 -133 3
-5 0 -57 0 -115 0 -58 -1 -112 -1 -120 0 -8 0 -63 -1 -121 -2 -59 -1 -111 1
-117 5 -6 3 -13 2 -17 -3 -4 -7 -15 -7 -30 -1 -14 5 -25 6 -25 2 0 -8 -64 -6
-87 2 -7 3 -15 1 -18 -4 -3 -6 -15 -6 -30 0 -14 5 -25 6 -25 2 0 -4 -19 -6
-42 -4 -24 1 -47 3 -53 3 -5 0 -75 0 -155 0 -80 0 -152 0 -160 0 -8 0 -78 0
-155 -1 -77 -1 -144 0 -150 1 -12 1 -65 -1 -91 -5 -18 -3 -36 -51 -58 -151 -2
-11 -13 -53 -24 -92 -12 -40 -18 -73 -15 -73 3 0 0 -7 -7 -15 -7 -8 -10 -15
-7 -15 4 0 0 -18 -8 -40 -8 -22 -12 -40 -10 -40 3 0 0 -12 -6 -27 -6 -16 -12
-35 -14 -43 -2 -8 -8 -35 -15 -60 -6 -25 -13 -54 -15 -65 -2 -11 -23 -90 -46
-175 -23 -85 -43 -162 -44 -170 -2 -8 -4 -15 -5 -15 -2 0 -10 -36 -12 -57 -1
-10 -5 -18 -8 -18 -3 0 -6 -8 -7 -17 -3 -43 -8 -63 -14 -63 -4 0 -6 -8 -4 -17
1 -10 -1 -25 -6 -34 -4 -9 -10 -27 -13 -40 -6 -29 -7 -34 -46 -184 -18 -66
-33 -127 -35 -135 -5 -18 -62 -237 -65 -248 -6 -20 -25 -93 -35 -136 -2 -10
-14 -55 -26 -100 -11 -45 -22 -88 -24 -96 -2 -8 -4 -15 -5 -15 -1 0 -3 -9 -6
-20 -2 -11 -15 -65 -29 -120 -14 -55 -28 -107 -30 -115 -2 -8 -4 -15 -5 -15
-2 0 -2 -3 -15 -60 -3 -16 -7 -34 -9 -40 -1 -5 -8 -30 -15 -55 -7 -25 -14 -52
-16 -60 -2 -8 -8 -35 -15 -60 -7 -25 -14 -52 -16 -60 -2 -8 -8 -31 -13 -50
-40 -151 -73 -279 -77 -299 -3 -13 -18 -72 -34 -130 -15 -58 -26 -109 -24
-113 3 -5 1 -8 -3 -8 -5 0 -10 -8 -11 -17 -2 -22 -10 -58 -12 -58 -1 0 -3 -11
-6 -25 -2 -14 -7 -32 -11 -40 -8 -18 -7 -16 -17 -60 -34 -144 -202 -305 -362
-346 -35 -9 -2640 -11 -2669 -2 -81 26 -149 76 -178 133 -15 30 -31 95 -31
125 1 25 16 104 22 115 4 6 7 15 8 20 1 6 9 39 19 75 9 36 18 72 20 80 2 8 10
42 20 75 9 33 18 73 21 88 2 15 8 37 14 47 6 11 9 20 6 20 -3 0 0 15 5 33 6
17 12 39 14 47 1 8 10 42 19 75 9 33 19 71 22 85 2 14 9 39 14 55 8 26 108
412 114 440 2 6 8 30 15 55 7 25 15 56 18 69 2 13 8 32 13 41 5 10 7 20 5 22
-3 3 1 24 9 46 9 23 13 42 10 42 -2 0 0 8 5 18 5 9 11 31 14 47 3 17 15 66 27
110 26 99 70 265 75 285 2 8 17 67 34 130 78 302 123 476 126 490 2 8 9 35 16
60 7 25 14 50 15 55 1 6 3 12 4 15 1 3 3 12 5 20 1 8 8 35 15 60 7 25 14 52
16 60 2 8 24 94 50 190 25 96 48 184 50 195 2 11 8 38 14 60 6 22 12 45 13 50
1 6 6 16 10 23 5 6 6 12 3 12 -3 0 2 23 10 52 9 28 18 60 20 70 2 10 6 26 8
36 3 9 8 31 11 47 l6 30 -1151 0 c-634 0 -1156 -3 -1161 -6z"/>
</g>
</svg>
