<svg width="58" height="81" viewBox="0 0 58 81" fill="none" xmlns="http://www.w3.org/2000/svg">
<path d="M28.9098 3C14.6054 3 3 14.0459 3 27.6503C3 43.3041 20.2732 68.111 26.6157 76.6792C26.879 77.0409 27.224 77.3352 27.6227 77.5381C28.0214 77.7411 28.4624 77.8468 28.9098 77.8468C29.3572 77.8468 29.7982 77.7411 30.1969 77.5381C30.5956 77.3352 30.9406 77.0409 31.2039 76.6792C37.5464 68.1146 54.8196 43.3167 54.8196 27.6503C54.8196 14.0459 43.2142 3 28.9098 3Z" stroke="#A6C83C" stroke-width="5" stroke-linecap="round" stroke-linejoin="round"/>
<path d="M28.91 37.5464C33.6799 37.5464 37.5466 33.6797 37.5466 28.9098C37.5466 24.1399 33.6799 20.2732 28.91 20.2732C24.1402 20.2732 20.2734 24.1399 20.2734 28.9098C20.2734 33.6797 24.1402 37.5464 28.91 37.5464Z" stroke="#A6C83C" stroke-width="5" stroke-linecap="round" stroke-linejoin="round"/>
</svg>
