<svg width="76" height="76" viewBox="0 0 76 76" fill="none" xmlns="http://www.w3.org/2000/svg">
<path d="M55.1954 20.8124C53.8955 19.5121 53.1345 17.769 53.0643 15.9318C52.9942 14.0945 53.6203 12.2985 54.8173 10.903C54.9163 10.7869 54.9678 10.6377 54.9614 10.4853C54.955 10.3329 54.8913 10.1885 54.7829 10.0811L47.8876 3.17792C47.7736 3.064 47.619 3 47.4579 3C47.2967 3 47.1422 3.064 47.0282 3.17792L36.0375 14.1686C35.632 14.574 35.3265 15.0683 35.1453 15.6124C34.9648 16.1577 34.6597 16.6534 34.2542 17.0602C33.8487 17.467 33.354 17.7738 32.8093 17.9561C32.265 18.1375 31.7702 18.443 31.364 18.8483L3.17792 47.0282C3.064 47.1422 3 47.2967 3 47.4579C3 47.619 3.064 47.7736 3.17792 47.8876L10.0733 54.7829C10.1807 54.8913 10.325 54.955 10.4775 54.9614C10.6299 54.9678 10.7791 54.9163 10.8952 54.8173C12.2904 53.619 14.0868 52.9919 15.9247 53.0616C17.7626 53.1313 19.5063 53.8926 20.8069 55.1931C22.1074 56.4937 22.8687 58.2374 22.9384 60.0753C23.0081 61.9132 22.381 63.7096 21.1827 65.1048C21.0837 65.2209 21.0322 65.3701 21.0386 65.5225C21.045 65.6749 21.1087 65.8193 21.2171 65.9267L28.1124 72.8221C28.2264 72.936 28.381 73 28.5421 73C28.7033 73 28.8578 72.936 28.9718 72.8221L57.1595 44.636C57.5648 44.2298 57.8703 43.735 58.0517 43.1907C58.2322 42.6454 58.5373 42.1497 58.9428 41.7428C59.3483 41.336 59.843 41.0292 60.3876 40.8469C60.9317 40.6657 61.426 40.3602 61.8314 39.9547L72.8221 28.964C72.936 28.85 73 28.6955 73 28.5343C73 28.3732 72.936 28.2186 72.8221 28.1046L65.9267 21.2093C65.8193 21.1009 65.6749 21.0372 65.5225 21.0308C65.3701 21.0244 65.2209 21.0759 65.1048 21.1749C63.7112 22.3739 61.9163 23.0027 60.0791 22.9355C58.2419 22.8683 56.4977 22.11 55.1954 20.8124Z" stroke="#A6C83C" stroke-width="5" stroke-miterlimit="10"/>
<path d="M37.1407 19.9435L34.561 17.3638" stroke="#A6C83C" stroke-width="5" stroke-miterlimit="10" stroke-linecap="round"/>
<path d="M44.0189 26.8218L42.2986 25.103" stroke="#A6C83C" stroke-width="5" stroke-miterlimit="10" stroke-linecap="round"/>
<path d="M50.897 33.7013L49.1782 31.981" stroke="#A6C83C" stroke-width="5" stroke-miterlimit="10" stroke-linecap="round"/>
<path d="M58.6361 41.4391L56.0564 38.8594" stroke="#A6C83C" stroke-width="5" stroke-miterlimit="10" stroke-linecap="round"/>
</svg>
