<svg width="74" height="74" viewBox="0 0 74 74" fill="none" xmlns="http://www.w3.org/2000/svg">
<path d="M62.9943 8.2168H10.8253C6.50352 8.2168 3 11.7203 3 16.0421V62.9942C3 67.316 6.50352 70.8195 10.8253 70.8195H62.9943C67.3161 70.8195 70.8196 67.316 70.8196 62.9942V16.0421C70.8196 11.7203 67.3161 8.2168 62.9943 8.2168Z" stroke="#A6C83C" stroke-width="5.21689" stroke-linejoin="round"/>
<path d="M47.2621 32.9971C47.2621 35.113 45.5469 36.8283 43.431 36.8283C41.3151 36.8283 39.5998 35.113 39.5998 32.9971C39.5998 30.8813 41.3151 29.166 43.431 29.166C45.5469 29.166 47.2621 30.8813 47.2621 32.9971Z" fill="#A6C83C" stroke="#A6C83C" stroke-width="0.163028"/>
<path d="M60.3044 32.9971C60.3044 35.113 58.5891 36.8283 56.4732 36.8283C54.3573 36.8283 52.6421 35.113 52.6421 32.9971C52.6421 30.8813 54.3573 29.166 56.4732 29.166C58.5891 29.166 60.3044 30.8813 60.3044 32.9971Z" fill="#A6C83C" stroke="#A6C83C" stroke-width="0.163028"/>
<path d="M47.2621 46.0394C47.2621 48.1553 45.5469 49.8705 43.431 49.8705C41.3151 49.8705 39.5998 48.1553 39.5998 46.0394C39.5998 43.9235 41.3151 42.2082 43.431 42.2082C45.5469 42.2082 47.2621 43.9235 47.2621 46.0394Z" fill="#A6C83C" stroke="#A6C83C" stroke-width="0.163028"/>
<path d="M60.3044 46.0394C60.3044 48.1553 58.5891 49.8705 56.4732 49.8705C54.3573 49.8705 52.6421 48.1553 52.6421 46.0394C52.6421 43.9235 54.3573 42.2082 56.4732 42.2082C58.5891 42.2082 60.3044 43.9235 60.3044 46.0394Z" fill="#A6C83C" stroke="#A6C83C" stroke-width="0.163028"/>
<path d="M21.1777 46.0394C21.1777 48.1553 19.4624 49.8705 17.3465 49.8705C15.2306 49.8705 13.5154 48.1553 13.5154 46.0394C13.5154 43.9235 15.2306 42.2082 17.3465 42.2082C19.4624 42.2082 21.1777 43.9235 21.1777 46.0394Z" fill="#A6C83C" stroke="#A6C83C" stroke-width="0.163028"/>
<path d="M34.2199 46.0394C34.2199 48.1553 32.5046 49.8705 30.3887 49.8705C28.2729 49.8705 26.5576 48.1553 26.5576 46.0394C26.5576 43.9235 28.2729 42.2082 30.3887 42.2082C32.5046 42.2082 34.2199 43.9235 34.2199 46.0394Z" fill="#A6C83C" stroke="#A6C83C" stroke-width="0.163028"/>
<path d="M21.1777 59.0816C21.1777 61.1975 19.4624 62.9128 17.3465 62.9128C15.2306 62.9128 13.5154 61.1975 13.5154 59.0816C13.5154 56.9657 15.2306 55.2505 17.3465 55.2505C19.4624 55.2505 21.1777 56.9657 21.1777 59.0816Z" fill="#A6C83C" stroke="#A6C83C" stroke-width="0.163028"/>
<path d="M34.2199 59.0816C34.2199 61.1975 32.5046 62.9128 30.3887 62.9128C28.2729 62.9128 26.5576 61.1975 26.5576 59.0816C26.5576 56.9657 28.2729 55.2505 30.3887 55.2505C32.5046 55.2505 34.2199 56.9657 34.2199 59.0816Z" fill="#A6C83C" stroke="#A6C83C" stroke-width="0.163028"/>
<path d="M47.2621 59.0816C47.2621 61.1975 45.5469 62.9128 43.431 62.9128C41.3151 62.9128 39.5998 61.1975 39.5998 59.0816C39.5998 56.9657 41.3151 55.2505 43.431 55.2505C45.5469 55.2505 47.2621 56.9657 47.2621 59.0816Z" fill="#A6C83C" stroke="#A6C83C" stroke-width="0.163028"/>
<path d="M16.0422 3V8.21689" stroke="#A6C83C" stroke-width="5.21689" stroke-linecap="round" stroke-linejoin="round"/>
<path d="M57.7773 3V8.21689" stroke="#A6C83C" stroke-width="5.21689" stroke-linecap="round" stroke-linejoin="round"/>
<path d="M70.8196 21.259H3" stroke="#A6C83C" stroke-width="5.21689" stroke-linejoin="round"/>
</svg>
