<svg width="76" height="56" viewBox="0 0 76 56" fill="none" xmlns="http://www.w3.org/2000/svg">
<path d="M60.8139 14.25C60.3561 20.6047 55.6421 25.5 50.5014 25.5C45.3608 25.5 40.6389 20.6062 40.1889 14.25C39.7202 7.63906 44.3093 3 50.5014 3C56.6936 3 61.2827 7.75937 60.8139 14.25Z" stroke="#A6C83C" stroke-width="5" stroke-linecap="round" stroke-linejoin="round"/>
<path d="M50.5016 35.5002C40.3188 35.5002 30.5266 40.5581 28.0735 50.4081C27.7485 51.7112 28.5656 53.0002 29.9047 53.0002H71.1C72.4391 53.0002 73.2516 51.7112 72.9313 50.4081C70.4781 40.4002 60.686 35.5002 50.5016 35.5002Z" stroke="#A6C83C" stroke-width="5" stroke-miterlimit="10"/>
<path d="M29.2515 17.0531C28.8859 22.1281 25.0765 26.125 20.9702 26.125C16.864 26.125 13.0484 22.1297 12.689 17.0531C12.3156 11.7734 16.0234 8 20.9702 8C25.9171 8 29.6249 11.8703 29.2515 17.0531Z" stroke="#A6C83C" stroke-width="5" stroke-linecap="round" stroke-linejoin="round"/>
<path d="M30.189 35.8125C27.3687 34.5203 24.2625 34.0234 20.9703 34.0234C12.8453 34.0234 5.01715 38.0625 3.05622 45.9297C2.7984 46.9703 3.45153 48 4.52028 48H22.064" stroke="#A6C83C" stroke-width="5" stroke-miterlimit="10" stroke-linecap="round"/>
</svg>
