<svg width="47" height="46" viewBox="0 0 47 46" fill="none" xmlns="http://www.w3.org/2000/svg">
<rect width="47" height="46" rx="10" fill="#003A52"/>
<path d="M36.3169 24.0029V34.1037H30.4608V24.6798C30.4608 22.3136 29.6152 20.6977 27.4949 20.6977C25.8768 20.6977 24.9155 21.7856 24.491 22.839C24.3368 23.2154 24.2971 23.7382 24.2971 24.2662V34.1033H18.4405C18.4405 34.1033 18.5191 18.1423 18.4405 16.4901H24.2975V18.9861C24.2858 19.0057 24.2692 19.025 24.2587 19.0437H24.2975V18.9861C25.0758 17.7886 26.4638 16.0766 29.5755 16.0766C33.4284 16.0766 36.3169 18.5939 36.3169 24.0029ZM12.3139 8C10.3106 8 9 9.31501 9 11.0427C9 12.7338 10.2726 14.0868 12.2371 14.0868H12.2751C14.3177 14.0868 15.5877 12.7338 15.5877 11.0427C15.5489 9.31501 14.3177 8 12.3139 8ZM9.34808 34.1037H15.2025V16.4901H9.34808V34.1037Z" fill="#EFEBDC"/>
</svg>
